<svg viewBox="0 0 224 43" xmlns="http://www.w3.org/2000/svg" data-logo="logo">
        <g transform="translate(0, 1) rotate(0)" id="logogram" style="opacity: 1;"><path fill="#3A724F" d="M20.1719 5.45685L22.8086 0.889954L30.285 5.20648L27.6483 9.77338C27.186 10.5742 27.8792 11.5476 28.7872 11.3725L33.8389 10.3984L35.4735 18.8753L30.4218 19.8494C22.2497 21.4253 16.0106 12.6645 20.1719 5.45685Z" clip-rule="evenodd" fill-rule="evenodd"></path><path fill="#DC8E43" d="M15.6034 36.3231L12.9667 40.89L5.49021 36.5735L8.12691 32.0066C8.58928 31.2057 7.89604 30.2323 6.98803 30.4074L1.93636 31.3815L0.301758 22.9046L5.35343 21.9305C13.5255 20.3547 19.7647 29.1155 15.6034 36.3231Z" clip-rule="evenodd" fill-rule="evenodd"></path><path fill="#14424C" d="M15.8321 5.45685L13.1954 0.889954L5.71891 5.20648L8.35561 9.77338C8.81797 10.5742 8.12474 11.5476 7.21673 11.3725L2.16505 10.3984L0.530457 18.8753L5.58213 19.8494C13.7542 21.4253 19.9934 12.6645 15.8321 5.45685Z" clip-rule="evenodd" fill-rule="evenodd"></path><path fill="#C85D1B" d="M19.9514 36.3231L22.5881 40.89L30.0645 36.5735L27.4278 32.0066C26.9654 31.2057 27.6587 30.2323 28.5667 30.4074L33.6184 31.3815L35.253 22.9046L30.2013 21.9305C22.0292 20.3547 15.79 29.1155 19.9514 36.3231Z" clip-rule="evenodd" fill-rule="evenodd"></path></g>
        <g transform="translate(42, 8)" id="logotype" style="opacity: 1;"><path d="M17.64 27.38L17.64 27.38Q14.58 27.38 12.31 26.44Q10.05 25.50 8.79 23.65Q7.52 21.80 7.45 19.10L7.45 19.10L12.53 19.10Q12.63 20.39 13.30 21.25Q13.96 22.11 15.07 22.54Q16.19 22.97 17.59 22.97L17.59 22.97Q18.99 22.97 20.02 22.57Q21.06 22.16 21.64 21.43Q22.22 20.69 22.22 19.72L22.22 19.72Q22.22 18.85 21.70 18.26Q21.18 17.67 20.20 17.24Q19.23 16.81 17.83 16.49L17.83 16.49L15.02 15.79Q11.79 15.00 9.96 13.32Q8.14 11.64 8.14 8.87L8.14 8.87Q8.14 6.56 9.38 4.83Q10.61 3.11 12.78 2.15Q14.94 1.19 17.71 1.19L17.71 1.19Q20.53 1.19 22.63 2.16Q24.73 3.13 25.91 4.84Q27.09 6.56 27.12 8.80L27.12 8.80L22.08 8.80Q21.94 7.26 20.77 6.42Q19.60 5.59 17.66 5.59L17.66 5.59Q16.34 5.59 15.40 5.96Q14.46 6.34 13.96 7.00Q13.47 7.67 13.47 8.53L13.47 8.53Q13.47 9.47 14.04 10.09Q14.61 10.71 15.54 11.10Q16.48 11.48 17.55 11.74L17.55 11.74L19.86 12.30Q21.47 12.66 22.85 13.28Q24.23 13.89 25.28 14.79Q26.32 15.69 26.89 16.92Q27.46 18.15 27.46 19.75L27.46 19.75Q27.46 22.06 26.30 23.78Q25.14 25.50 22.94 26.44Q20.73 27.38 17.64 27.38ZM26.98 7.89L38.31 7.89L38.31 11.81L26.98 11.81L26.98 7.89ZM29.62 21.86L29.62 3.35L34.74 3.35L34.74 21.41Q34.74 22.32 35.14 22.75Q35.55 23.19 36.49 23.19L36.49 23.19Q36.78 23.19 37.31 23.11Q37.84 23.04 38.11 22.97L38.11 22.97L38.84 26.81Q37.99 27.07 37.14 27.17Q36.30 27.27 35.53 27.27L35.53 27.27Q32.66 27.27 31.14 25.87Q29.62 24.47 29.62 21.86L29.62 21.86ZM44.50 27L39.37 27L39.37 7.89L44.33 7.89L44.33 11.23L44.53 11.23Q45.06 9.45 46.30 8.54Q47.54 7.64 49.15 7.64L49.15 7.64Q49.54 7.64 49.99 7.68Q50.45 7.72 50.81 7.81L50.81 7.81L50.81 12.39Q50.46 12.27 49.81 12.20Q49.16 12.13 48.58 12.13L48.58 12.13Q47.42 12.13 46.48 12.64Q45.54 13.14 45.02 14.04Q44.50 14.93 44.50 16.13L44.50 16.13L44.50 27ZM59.98 27.38L59.98 27.38Q57.06 27.38 54.94 26.18Q52.82 24.98 51.68 22.78Q50.55 20.57 50.55 17.55L50.55 17.55Q50.55 14.59 51.68 12.37Q52.80 10.15 54.87 8.90Q56.94 7.65 59.72 7.65L59.72 7.65Q61.60 7.65 63.23 8.25Q64.85 8.85 66.08 10.06Q67.31 11.26 68.00 13.07Q68.70 14.88 68.70 17.34L68.70 17.34L68.70 18.78L52.65 18.78L52.65 15.57L66.18 15.57L63.79 16.42Q63.79 14.93 63.34 13.83Q62.89 12.73 61.99 12.12Q61.09 11.52 59.76 11.52L59.76 11.52Q58.44 11.52 57.51 12.13Q56.58 12.75 56.10 13.80Q55.62 14.85 55.62 16.20L55.62 16.20L55.62 18.47Q55.62 20.13 56.18 21.26Q56.73 22.39 57.73 22.95Q58.73 23.51 60.07 23.51L60.07 23.51Q60.97 23.51 61.71 23.26Q62.44 23.00 62.96 22.50Q63.48 21.99 63.76 21.26L63.76 21.26L68.41 22.13Q67.94 23.70 66.80 24.89Q65.65 26.08 63.94 26.73Q62.22 27.38 59.98 27.38ZM75.26 27.38L75.26 27.38Q73.45 27.38 72.00 26.74Q70.56 26.09 69.73 24.82Q68.90 23.55 68.90 21.65L68.90 21.65Q68.90 20.06 69.49 18.98Q70.08 17.91 71.10 17.26Q72.11 16.61 73.40 16.27Q74.69 15.93 76.11 15.79L76.11 15.79Q77.77 15.62 78.79 15.47Q79.80 15.33 80.27 15.01Q80.74 14.70 80.74 14.08L80.74 14.08L80.74 13.99Q80.74 13.17 80.40 12.61Q80.06 12.05 79.39 11.75Q78.73 11.45 77.75 11.45L77.75 11.45Q76.76 11.45 76.03 11.75Q75.29 12.05 74.83 12.54Q74.37 13.04 74.15 13.65L74.15 13.65L69.45 12.87Q69.94 11.21 71.09 10.05Q72.23 8.88 73.93 8.27Q75.63 7.65 77.75 7.65L77.75 7.65Q79.31 7.65 80.76 8.02Q82.21 8.39 83.37 9.16Q84.52 9.93 85.19 11.16Q85.87 12.39 85.87 14.13L85.87 14.13L85.87 27L81.02 27L81.02 24.35L80.85 24.35Q80.38 25.24 79.61 25.91Q78.85 26.59 77.76 26.98Q76.68 27.38 75.26 27.38ZM76.71 23.77L76.71 23.77Q77.92 23.77 78.84 23.29Q79.75 22.81 80.26 21.99Q80.78 21.17 80.78 20.16L80.78 20.16L80.78 18.10Q80.55 18.27 80.09 18.40Q79.63 18.54 79.07 18.64Q78.50 18.75 77.96 18.83Q77.41 18.92 76.98 18.97L76.98 18.97Q76.04 19.10 75.33 19.41Q74.61 19.72 74.21 20.22Q73.82 20.73 73.82 21.51L73.82 21.51Q73.82 22.25 74.20 22.75Q74.57 23.26 75.21 23.51Q75.86 23.77 76.71 23.77ZM93.10 27L87.97 27L87.97 7.89L92.72 7.89L92.98 12.64L92.60 12.64Q93.05 10.88 93.91 9.77Q94.77 8.66 95.93 8.13Q97.10 7.60 98.38 7.60L98.38 7.60Q100.45 7.60 101.71 8.91Q102.97 10.22 103.57 12.95L103.57 12.95L102.97 12.95Q103.40 11.12 104.37 9.94Q105.33 8.75 106.66 8.18Q107.98 7.60 109.43 7.60L109.43 7.60Q111.19 7.60 112.57 8.37Q113.95 9.14 114.74 10.59Q115.54 12.03 115.54 14.11L115.54 14.11L115.54 27L110.41 27L110.41 15.09Q110.41 13.46 109.53 12.68Q108.65 11.89 107.37 11.89L107.37 11.89Q106.41 11.89 105.70 12.31Q104.99 12.73 104.61 13.48Q104.22 14.23 104.22 15.24L104.22 15.24L104.22 27L99.27 27L99.27 14.95Q99.27 13.55 98.44 12.72Q97.61 11.89 96.29 11.89L96.29 11.89Q95.39 11.89 94.66 12.30Q93.93 12.71 93.52 13.51Q93.10 14.30 93.10 15.45L93.10 15.45L93.10 27ZM128.85 27L123.02 27L115.98 7.89L121.43 7.89L124.64 17.81Q125.22 19.67 125.66 21.57Q126.10 23.46 126.56 25.50L126.56 25.50L125.46 25.50Q125.91 23.46 126.33 21.57Q126.76 19.67 127.34 17.81L127.34 17.81L130.52 7.89L135.90 7.89L128.85 27ZM141.47 27L136.35 27L136.35 7.89L141.47 7.89L141.47 27ZM138.91 5.40L138.91 5.40Q137.75 5.40 136.93 4.63Q136.11 3.86 136.11 2.77L136.11 2.77Q136.11 1.67 136.93 0.90Q137.75 0.13 138.91 0.13L138.91 0.13Q140.07 0.13 140.90 0.90Q141.73 1.66 141.73 2.77L141.73 2.77Q141.73 3.86 140.90 4.63Q140.07 5.40 138.91 5.40ZM154.26 27.32L154.26 27.32Q152.70 27.32 151.62 26.79Q150.55 26.27 149.87 25.49Q149.20 24.71 148.84 23.94L148.84 23.94L148.60 23.94L148.60 27L143.56 27L143.56 1.54L148.68 1.54L148.68 11.11L148.84 11.11Q149.20 10.35 149.85 9.55Q150.51 8.75 151.59 8.20Q152.67 7.65 154.29 7.65L154.29 7.65Q156.41 7.65 158.17 8.75Q159.93 9.84 160.98 12.03Q162.03 14.22 162.03 17.48L162.03 17.48Q162.03 20.66 161.01 22.86Q159.98 25.05 158.22 26.19Q156.46 27.32 154.26 27.32ZM152.68 23.21L152.68 23.21Q154.02 23.21 154.93 22.47Q155.84 21.74 156.31 20.44Q156.78 19.14 156.78 17.46L156.78 17.46Q156.78 15.79 156.31 14.51Q155.84 13.23 154.94 12.49Q154.03 11.76 152.68 11.76L152.68 11.76Q151.37 11.76 150.44 12.47Q149.52 13.17 149.04 14.45Q148.56 15.72 148.56 17.46L148.56 17.46Q148.56 19.19 149.05 20.48Q149.54 21.77 150.46 22.49Q151.38 23.21 152.68 23.21ZM171.98 27.38L171.98 27.38Q169.05 27.38 166.93 26.18Q164.81 24.98 163.68 22.78Q162.54 20.57 162.54 17.55L162.54 17.55Q162.54 14.59 163.67 12.37Q164.80 10.15 166.87 8.90Q168.93 7.65 171.72 7.65L171.72 7.65Q173.60 7.65 175.22 8.25Q176.85 8.85 178.08 10.06Q179.31 11.26 180.00 13.07Q180.69 14.88 180.69 17.34L180.69 17.34L180.69 18.78L164.64 18.78L164.64 15.57L178.18 15.57L175.79 16.42Q175.79 14.93 175.33 13.83Q174.88 12.73 173.98 12.12Q173.09 11.52 171.75 11.52L171.75 11.52Q170.44 11.52 169.51 12.13Q168.57 12.75 168.10 13.80Q167.62 14.85 167.62 16.20L167.62 16.20L167.62 18.47Q167.62 20.13 168.17 21.26Q168.73 22.39 169.73 22.95Q170.73 23.51 172.06 23.51L172.06 23.51Q172.97 23.51 173.70 23.26Q174.44 23.00 174.96 22.50Q175.48 21.99 175.75 21.26L175.75 21.26L180.40 22.13Q179.94 23.70 178.79 24.89Q177.65 26.08 175.93 26.73Q174.21 27.38 171.98 27.38Z" fill="#00b9ae"></path></g>
        
</svg>